<svg width="17.000000" height="15.000000" viewBox="0 0 17 15" fill="none" xmlns="http://www.w3.org/2000/svg" xmlns:xlink="http://www.w3.org/1999/xlink">
	<desc>
			Created with Pixso.
	</desc>
	<defs/>
	<path id="Vector" d="M7.55 11.3C7.27 11.3 6.99 11.39 6.75 11.55C6.52 11.71 6.33 11.93 6.22 12.19C6.11 12.46 6.09 12.75 6.14 13.03C6.2 13.3 6.33 13.56 6.54 13.76C6.74 13.96 6.99 14.1 7.27 14.16C7.55 14.21 7.84 14.18 8.11 14.07C8.37 13.97 8.59 13.78 8.75 13.54C8.91 13.31 8.99 13.03 8.99 12.74C8.99 12.36 8.84 12 8.57 11.73C8.3 11.46 7.94 11.3 7.55 11.3ZM7.55 13.46C7.41 13.46 7.27 13.42 7.15 13.34C7.04 13.26 6.94 13.15 6.89 13.02C6.83 12.89 6.82 12.74 6.85 12.6C6.88 12.46 6.94 12.34 7.04 12.24C7.15 12.13 7.27 12.07 7.41 12.04C7.55 12.01 7.7 12.02 7.83 12.08C7.96 12.13 8.07 12.23 8.15 12.34C8.23 12.46 8.27 12.6 8.27 12.74C8.27 12.93 8.2 13.12 8.06 13.25C7.93 13.38 7.74 13.46 7.55 13.46L7.55 13.46Z" fill="#000000" fill-opacity="1.000000" fill-rule="nonzero"/>
	<path id="Vector" d="M12.82 11.3C12.54 11.3 12.26 11.39 12.02 11.55C11.79 11.71 11.6 11.93 11.49 12.19C11.38 12.46 11.35 12.75 11.41 13.03C11.47 13.3 11.6 13.56 11.8 13.76C12.01 13.96 12.26 14.1 12.54 14.16C12.82 14.21 13.11 14.18 13.37 14.07C13.64 13.97 13.86 13.78 14.02 13.54C14.18 13.31 14.26 13.03 14.26 12.74C14.26 12.36 14.11 12 13.84 11.73C13.57 11.46 13.2 11.3 12.82 11.3ZM12.82 13.46C12.68 13.46 12.54 13.42 12.42 13.34C12.3 13.26 12.21 13.15 12.16 13.02C12.1 12.89 12.09 12.74 12.12 12.6C12.14 12.46 12.21 12.34 12.31 12.24C12.41 12.13 12.54 12.07 12.68 12.04C12.82 12.01 12.97 12.02 13.1 12.08C13.23 12.13 13.34 12.23 13.42 12.34C13.5 12.46 13.54 12.6 13.54 12.74C13.54 12.93 13.46 13.12 13.33 13.25C13.2 13.38 13.01 13.46 12.82 13.46L12.82 13.46Z" fill="#000000" fill-opacity="1.000000" fill-rule="nonzero"/>
	<path id="Vector" d="M14.97 9.11L16.43 2.61C16.46 2.44 16.46 2.26 16.42 2.09C16.39 1.92 16.31 1.76 16.2 1.63C16.09 1.49 15.95 1.38 15.8 1.31C15.64 1.23 15.47 1.19 15.29 1.19L3.94 1.19L3.72 0.1C3.7 0.02 3.65 -0.06 3.59 -0.11C3.52 -0.16 3.44 -0.19 3.36 -0.19L-0.1 -0.19C-0.2 -0.19 -0.29 -0.15 -0.36 -0.08C-0.43 -0.02 -0.46 0.08 -0.46 0.17C-0.46 0.27 -0.43 0.36 -0.36 0.43C-0.29 0.49 -0.2 0.53 -0.1 0.53L3.07 0.53L3.29 1.62L4.82 9.1L5.17 10.78C5.18 10.86 5.23 10.93 5.3 10.98C5.36 11.04 5.44 11.06 5.53 11.06L15.58 11.06C15.67 11.06 15.76 11.03 15.83 10.96C15.9 10.89 15.94 10.8 15.94 10.7C15.94 10.61 15.9 10.52 15.83 10.45C15.76 10.38 15.67 10.34 15.58 10.34L5.81 10.34L5.62 9.39L14.62 9.39C14.7 9.39 14.78 9.36 14.84 9.31C14.91 9.26 14.95 9.19 14.97 9.11ZM5.47 8.67L4.09 1.91L15.29 1.91C15.36 1.91 15.42 1.93 15.48 1.95C15.54 1.98 15.6 2.03 15.64 2.08C15.68 2.13 15.71 2.19 15.72 2.25C15.74 2.32 15.74 2.39 15.72 2.45L14.33 8.67L5.47 8.67Z" fill="#000000" fill-opacity="1.000000" fill-rule="nonzero"/>
</svg>
