<svg width="18.000000" height="18.000000" viewBox="0 0 18 18" fill="none" xmlns="http://www.w3.org/2000/svg" xmlns:xlink="http://www.w3.org/1999/xlink">
	<desc>
			Created with Pixso.
	</desc>
	<defs>
		<clipPath id="clip1_1651">
			<rect id="Frame" width="18.000000" height="18.000000" fill="white" fill-opacity="0"/>
		</clipPath>
	</defs>
	<rect id="Frame" width="18.000000" height="18.000000" fill="#FFFFFF" fill-opacity="0"/>
	<g clip-path="url(#clip1_1651)">
		<path id="Vector" d="M17.46 9C17.46 7.6 17.11 6.22 16.45 4.99C15.79 3.76 14.83 2.71 13.67 1.94C12.5 1.17 11.17 0.7 9.78 0.57C8.39 0.44 6.98 0.66 5.7 1.2C4.41 1.75 3.28 2.6 2.4 3.69C1.53 4.78 0.94 6.07 0.68 7.44C0.42 8.81 0.51 10.23 0.93 11.56C1.36 12.89 2.1 14.1 3.11 15.07C4.67 16.59 6.77 17.45 8.96 17.45C11.14 17.46 13.25 16.62 14.83 15.12C14.86 15.09 14.89 15.06 14.92 15.03C15.72 14.24 16.36 13.31 16.79 12.27C17.23 11.23 17.46 10.12 17.46 9ZM9 1.26C10.49 1.26 11.96 1.69 13.21 2.51C14.47 3.32 15.46 4.49 16.06 5.85C16.67 7.22 16.87 8.74 16.63 10.22C16.4 11.69 15.74 13.07 14.73 14.18C14.34 13.39 13.78 12.7 13.1 12.13C12.41 11.57 11.62 11.15 10.77 10.91C11.48 10.52 12.03 9.9 12.35 9.16C12.67 8.41 12.73 7.59 12.52 6.81C12.32 6.02 11.86 5.33 11.22 4.84C10.58 4.34 9.8 4.08 8.99 4.08C8.18 4.08 7.4 4.34 6.76 4.84C6.12 5.33 5.66 6.02 5.46 6.81C5.26 7.59 5.32 8.41 5.63 9.16C5.95 9.9 6.5 10.52 7.21 10.91C6.36 11.15 5.57 11.57 4.89 12.13C4.2 12.7 3.65 13.39 3.25 14.18C1.96 12.77 1.25 10.91 1.26 9C1.26 6.94 2.07 4.97 3.52 3.52C4.97 2.07 6.94 1.26 9 1.26ZM9 10.66C8.42 10.66 7.85 10.49 7.37 10.17C6.88 9.84 6.51 9.39 6.29 8.85C6.07 8.31 6.01 7.72 6.12 7.16C6.23 6.59 6.51 6.07 6.92 5.66C7.34 5.25 7.86 4.97 8.43 4.85C9 4.74 9.58 4.8 10.12 5.02C10.66 5.25 11.11 5.62 11.43 6.11C11.76 6.59 11.93 7.16 11.93 7.74C11.92 8.51 11.61 9.25 11.06 9.8C10.52 10.35 9.77 10.66 9 10.66ZM3.8 14.73C4.25 13.73 4.98 12.88 5.9 12.29C6.83 11.7 7.9 11.38 9 11.38C10.09 11.38 11.16 11.7 12.09 12.29C13.01 12.88 13.74 13.73 14.19 14.73C12.77 16.02 10.92 16.74 9 16.74C7.07 16.74 5.22 16.02 3.8 14.73Z" fill="#000000" fill-opacity="1.000000" fill-rule="nonzero"/>
	</g>
</svg>
